<?xml version="1.0" encoding="utf-8"?>
<!-- Generator: Adobe Illustrator 25.2.0, SVG Export Plug-In . SVG Version: 6.00 Build 0)  -->
<svg version="1.1" id="Layer_1" xmlns="http://www.w3.org/2000/svg" xmlns:xlink="http://www.w3.org/1999/xlink" x="0px" y="0px"
	 viewBox="0 0 256 256" style="enable-background:new 0 0 256 256;" xml:space="preserve">
<style type="text/css">
	.st0{fill:#E62E57;}
	.st1{fill:#990F5C;}
	.st2{fill:#7F065D;}
	.st3{fill:#66005B;}
	.st4{fill:#B21B55;}
</style>
<g>
	<g>
		<path class="st0" d="M2.347,225.648H57.12c0.891,0,1.695-0.489,2.098-1.293l28.105-56.21c0.862-1.724,3.305-1.724,4.196-0.029
			l28.68,56.238c0.402,0.776,1.207,1.264,2.098,1.264h55.491c1.724,0,2.845-1.782,2.127-3.333L99.795,51.445
			c-0.374-0.833-1.207-1.351-2.127-1.351H82.179c-0.92,0-1.724,0.517-2.127,1.351L0.221,222.315
			C-0.498,223.867,0.623,225.648,2.347,225.648z"/>
	</g>
	<path class="st1" d="M202.817,224.298L113.531,33.685c-0.718-1.552,0.402-3.333,2.127-3.333h10.489c0.92,0,1.724,0.517,2.127,1.351
		l89.286,190.613c0.718,1.552-0.402,3.333-2.127,3.333h-10.489C204.024,225.648,203.19,225.131,202.817,224.298z"/>
	<path class="st2" d="M221.927,224.298L132.641,33.685c-0.718-1.552,0.402-3.333,2.127-3.333h10.489c0.92,0,1.724,0.517,2.127,1.351
		l89.286,190.613c0.718,1.552-0.402,3.333-2.127,3.333h-10.489C223.134,225.648,222.301,225.131,221.927,224.298z"/>
	<path class="st3" d="M241.037,224.298L151.751,33.685c-0.718-1.552,0.402-3.333,2.127-3.333h10.489c0.92,0,1.724,0.517,2.127,1.351
		l89.286,190.613c0.718,1.552-0.402,3.333-2.127,3.333h-10.489C242.244,225.648,241.411,225.131,241.037,224.298z"/>
	<path class="st4" d="M91.432,30.352h15.633c0.92,0,1.724,0.517,2.127,1.351l89.286,190.613c0.718,1.552-0.402,3.333-2.127,3.333
		h-10.489c-0.92,0-1.724-0.517-2.127-1.351L101.519,48.743c-0.374-0.833-1.207-1.351-2.127-1.351H85.656
		c-1.724,0-2.845-1.782-2.127-3.333l5.776-12.357C89.679,30.869,90.513,30.352,91.432,30.352z"/>
</g>
</svg>
